<svg
xmlns="http://www.w3.org/2000/svg"
viewBox="0 0 208 44"
fill="currentColor"
>
<path d="M79.715 18.298c8.5 0 12.399 5.3 12.399 10.499v11.298h-5.4V28.797c0-3.2-1.9-8.4-6.999-8.4-5.199 0-6.999 5.2-6.999 8.4v11.298h-5.3V28.797c-.1-5.2 3.8-10.5 12.3-10.5zM153.307 40.395c-8.499 0-12.399-5.3-12.399-10.499V18.698h5.299v11.298c0 3.2 1.9 8.4 7 8.4 5.199 0 6.999-5.2 6.999-8.4V18.698h5.299v11.298c.1 5.1-3.799 10.4-12.198 10.4zM113.711 38.495c-1.099.9-2.599 1.6-4.299 1.8-5.399.8-12.899-2.7-13.199-10.499-.3-7.999 7.6-11.398 12.799-11.198 8.699.2 11.799 6.799 11.799 10.498v11h-5.4v-10.9c0-2.4-1.1-8.498-6.599-8.599-5.399-.1-7.099 4.9-7.199 8.6 0 2.4.5 8.198 6.699 8.598 1.9.1 4.599-.4 5.299-1.1v1.8h.1zM137.608 43.195c-.699.3-2.699.7-4.899.1-2.5-.6-6.699-1.8-6.699-10.399V9.099h5.399v9.399h5v3.5h-5s.1 6.698 0 12.098c-.1 4.8 1.4 6.5 2.4 6.999 1.3.7 3.5.4 3.7.2v1.9h.099zM170.704 28.097c0-5.3 2.7-9 7.6-9.5 3.399-.3 4.599.3 4.599.3v2.1s-1.8-.5-3.8.1c-2.199.7-3.099 4-3.099 5.1v13.998h-5.3V28.097zM200.901 38.495c-1.1.9-2.6 1.6-4.3 1.8-5.399.8-12.898-2.7-13.198-10.499-.3-7.999 7.599-11.398 12.798-11.198 8.699.2 11.799 6.799 11.799 10.498v11h-5.399v-10.9c0-2.4-1.1-8.498-6.6-8.599-5.399-.1-7.099 4.9-7.199 8.6 0 2.4.5 8.198 6.7 8.598 1.899.1 4.599-.4 5.299-1.1v1.8h.1zM29.221 19.198c.6-1.8.9-2.8 2-6.3 1.3-4.399 4.3-7.899 9-6.399 5.498 1.7 4.199 7.2 3.299 9.5-.7 1.799-1.3 3.699-2.5 6.698-.9 2.4 1.1 2.5 2.2 2.3 1.2-.3 4.8-2.1 7.099-3.2 1.7-.8 4.8-2.6 6.5-.8 1.799 1.8-.2 4.9-2.3 6.8-2.1 1.9-7.7 4.2-9.4 4.9-1.7.699-2.4 1.699-1.5 2.199.8.5 3.3 1 4.1 1 .6.1 1.2.2 1.2.7 0 .5-1.4 1.6-4.8 2.8-1.8.6-5.199 1-7.099.7-3-.5-3.399-1-4.799-.5-1 .4-1.1 1.2-2.6 1.799-1.5.6-3.7.5-5.399.2-1.7-.3-4.6-.6-4.9-1.9-.1-.5.5-.9 1-1.4.5-.5.9-1.6-1.2-2-.9-.3-6.799-1.3-10.398-3.099-3.7-1.9-5.1-4.7-4.7-5.7.3-.8 1.1-.9 2.3-.7 1.3.2 6.9 1.8 8.6 1.8.7 0 1.2-.1 1.499-.6.7-1.2-1.4-2.6-3.1-4.599-2.4-2.9-7.099-7.699-3.6-11.998 2.3-2.8 6.9-1 8.8 1.2 1.5 1.7 4 5.099 5.9 7.499.799.9 1.599 1.4 2.399 1.4 1-.2 1.9-.9 2.4-2.3zm-.4-13.099c-1.4 2.6-3 8.3-3 8.3s-.1.4-.4-.1c-.199-.3-2.499-3.4-3.599-4.8-1.3-1.6-7.199-7.8-13.898-4.3-6.1 3.2-3.8 10.9-1.9 13.799 1.1 1.8 3.3 4.5 3.9 5.3.1.1.1.2-.1.1-.5-.1-1.9-.5-4.4-1.1-2.2-.6-4.4-.5-5 .5-.499.7-.699 1.799.2 3.399 1.8 3.2 6.7 8.299 14.8 9.899.2 0 .1.2 0 .4-.5.9-.2 1.6.1 2.1 1.199 1.4 2.499 1.999 7.898 2.899 7.4 1.3 10.099-1.2 10.399-1.6h.1c1.2.3 5.9 1.4 11.498-1 5.2-2.2 7.2-4.2 7.2-5.4 0-1.099-2.7-.999-3.5-1.199-.2-.1-.2-.2 0-.3.4-.2 1.3-.6 2-1 .8-.4 8.299-4.2 9.799-10.599s-4.3-6.499-7.5-5.099c-3.1 1.3-6.099 2.8-6.799 3.1-.1 0-.1 0-.1-.1.3-.7 1.4-3.6 2-6.2.7-3 .4-11.398-7.899-12.898-.5-.1-1.1-.2-1.8-.2-3.8 0-7.899 2.2-9.998 6.1z"></path>
</svg>